<svg xmlns="http://www.w3.org/2000/svg">
<defs>
<font id="ChildrenOnceWhere" horiz-adv-x="1014" >
  <font-face 
    font-family="Children Once Where"
    font-weight="400"
    font-stretch="normal"
    units-per-em="2048"
    panose-1="2 0 5 0 0 0 0 0 0 0"
    ascent="1638"
    descent="-410"
    x-height="1408"
    cap-height="1423"
    bbox="-8 -397 2390 1625"
    underline-thickness="150"
    underline-position="-292"
    unicode-range="U+0020-2122"
  />
<missing-glyph horiz-adv-x="1131" 
d="M649 1438h47l11 -81h24l11 11h12l11 -11v-12l-46 -382l12 -58h-12l12 -12v-174l348 -336l34 -47v-11l-23 -23q-169 116 -336 266v-81q0 -60 116 -174l220 -174v-11l-23 -24q-106 0 -267 174v-23l23 -93q-14 -58 -34 -58h-12q-28 0 -104 313l-12 12h-23v-81l11 -46
l-11 -47v-23l11 -70q-17 -46 -34 -46l-35 70l11 34l-11 128v23l11 46l-11 35h11l-34 93h-35l11 -35l-23 -139l12 -11q0 -254 -116 -302q-23 0 -23 104h-12q0 -127 -35 -127h-11q-70 93 -70 162l35 394l-12 12l24 220l-58 47q-20 -197 -35 -197l11 -12v-35l-11 -11l11 -12
v-12l-23 -174l23 -197l-11 -46l11 -58q-36 -12 -81 -116h-11l-24 58q24 52 24 151l-12 104l12 12l-12 116v429l12 139l-128 116v35h12q34 0 104 -47q0 77 46 93h24l11 -12h12v24q0 197 58 197h11l12 -12v-93l-23 -92v-70l46 -46l12 11v12l-12 11l12 58v35l-12 58l35 23h35
q24 -5 46 -58l-23 -255l46 -23l12 58v302l35 34l46 -46v-93l12 -46q-24 -52 -24 -151v-139l58 -58h24v93l11 46l-11 35l11 12v11l-11 12v11l23 93l-12 12v11l23 58l-11 12l11 139v58zM255 1009v-58l35 -12l12 12v58l-24 23zM383 858q23 -62 58 -69v11l-12 81h-23zM533 754
v-35q15 -87 47 -93l23 23v47zM371 615l12 -70v-35l-12 -11l12 -12l-12 -58v-93q26 0 58 279l-23 92q-23 0 -35 -92zM661 603l-12 -35l12 -35h12v70h-12zM371 255v-81h12v81h-12z" />
    <glyph glyph-name=".notdef" horiz-adv-x="1131" 
d="M649 1438h47l11 -81h24l11 11h12l11 -11v-12l-46 -382l12 -58h-12l12 -12v-174l348 -336l34 -47v-11l-23 -23q-169 116 -336 266v-81q0 -60 116 -174l220 -174v-11l-23 -24q-106 0 -267 174v-23l23 -93q-14 -58 -34 -58h-12q-28 0 -104 313l-12 12h-23v-81l11 -46
l-11 -47v-23l11 -70q-17 -46 -34 -46l-35 70l11 34l-11 128v23l11 46l-11 35h11l-34 93h-35l11 -35l-23 -139l12 -11q0 -254 -116 -302q-23 0 -23 104h-12q0 -127 -35 -127h-11q-70 93 -70 162l35 394l-12 12l24 220l-58 47q-20 -197 -35 -197l11 -12v-35l-11 -11l11 -12
v-12l-23 -174l23 -197l-11 -46l11 -58q-36 -12 -81 -116h-11l-24 58q24 52 24 151l-12 104l12 12l-12 116v429l12 139l-128 116v35h12q34 0 104 -47q0 77 46 93h24l11 -12h12v24q0 197 58 197h11l12 -12v-93l-23 -92v-70l46 -46l12 11v12l-12 11l12 58v35l-12 58l35 23h35
q24 -5 46 -58l-23 -255l46 -23l12 58v302l35 34l46 -46v-93l12 -46q-24 -52 -24 -151v-139l58 -58h24v93l11 46l-11 35l11 12v11l-11 12v11l23 93l-12 12v11l23 58l-11 12l11 139v58zM255 1009v-58l35 -12l12 12v58l-24 23zM383 858q23 -62 58 -69v11l-12 81h-23zM533 754
v-35q15 -87 47 -93l23 23v47zM371 615l12 -70v-35l-12 -11l12 -12l-12 -58v-93q26 0 58 279l-23 92q-23 0 -35 -92zM661 603l-12 -35l12 -35h12v70h-12zM371 255v-81h12v81h-12z" />
    <glyph glyph-name=".null" horiz-adv-x="0" 
 />
    <glyph glyph-name="nonmarkingreturn" horiz-adv-x="508" 
 />
    <glyph glyph-name="space" unicode=" " horiz-adv-x="508" 
 />
    <glyph glyph-name="space" unicode="&#xa0;" horiz-adv-x="508" 
 />
    <glyph glyph-name="exclam" unicode="!" horiz-adv-x="390" 
d="M209 1423h24l12 -61h-12l12 -13v-24l-12 -12v-13h12l37 13v-37h-24l24 -49l-49 -221q37 -55 37 -110l-25 -25l37 -25l-12 -12v-24h24l-24 -25l-25 61h-36l12 -61l-25 -98l25 -25v-36l-25 -25h-12q0 49 -37 86v25l12 12v12q-36 0 -36 110l12 13v12l-12 37h12l-12 12v12
l24 37l-12 49l12 12v13l-12 12l24 196l-12 13v12q19 147 62 147zM209 417h12q70 -40 98 -86v-24l-12 -13l73 -159q-106 -135 -196 -135h-37q-114 0 -122 123q24 0 24 36l12 13h13q20 0 49 -86l12 -12h12q81 3 135 73q0 37 -147 123h-25l-36 -25h-74v13q0 52 209 159z
M233 368l-12 -49l49 -25v13l-12 61h-25zM61 110v-24h25z" />
    <glyph glyph-name="quotedbl" unicode="&#x22;" horiz-adv-x="672" 
d="M379 1431h33q49 0 133 -417q34 0 34 -83h-17q-83 100 -150 100v33l-50 -50v-100h-33q-18 123 -251 417l-16 17l-17 50h17q90 0 233 -217l67 -17h17v17l-34 33h-16l16 17v33l-33 50q67 0 67 117zM545 1248l50 -50h-16l-34 33v17z" />
    <glyph glyph-name="numbersign" unicode="#" horiz-adv-x="1453" 
d="M516 1431l16 -17v-199q0 -30 150 -67l17 17l116 -17h34q0 83 33 83l17 -16h16l50 66v17h-33v17l33 33l33 -50h-16l16 -17v-16l-33 -117q166 -24 166 -50l17 17h67l50 -50q0 -50 -134 -50l-16 -100h-17q-123 100 -183 100v-17l-33 -50v-66q366 0 366 -100h17v50l-17 17h17
l166 -50v-17q0 -33 -166 -50l-67 17l-50 -33h-166l-83 16q0 -33 -67 -33l-67 -167l17 -16l-17 -83v-267l-16 -83l83 -66l-50 -17q-100 0 -100 150l17 16l-17 17h34v17h-34l-16 -17l-17 166h17l-17 50q0 167 50 233v84h-17l-66 -17l-17 17h-17q-166 0 -166 -167l-17 -133
l17 -17v-16q-50 -110 -50 -233h-50l-16 83l16 17v16l-16 17h-17l17 17v16l-17 17l33 316l-83 17l-33 -34l-50 50q0 28 100 67v16l-50 17l-150 -33l-17 16q0 100 333 134l17 16v33q0 100 -133 100v17l-84 -50h-116l-50 50q13 57 100 100h33l17 -17h16l34 33l16 -16h17l100 33
l66 -17h17l17 84v16l-17 67q27 83 100 83zM566 1032l-50 -67l16 -50l-16 -16l166 -17h50q33 0 67 133l-17 17l-17 -17h-16l-67 17l-50 -17z" />
    <glyph glyph-name="dollar" unicode="$" horiz-adv-x="1116" 
d="M667 1473h26q55 0 87 -214l-12 -62l25 -76h-13l25 -87l-12 -101l12 -50h-12l12 -12v-26l-12 -12q29 -138 75 -138q6 -44 101 -100l62 -113l-12 -63q75 0 75 -101q-47 -51 -213 -62q0 -50 -38 -50l-100 25l-25 -51l12 -12l-12 -38l25 -150h-13q-37 0 -37 88l-38 25l12 62
q0 30 -100 38l25 -276h-50q-35 0 -63 276l-113 25h-25l-88 -38v13q-163 -53 -163 -75h-37l-38 37v25l25 26l13 -13h12l38 38h25l12 -13h13q0 33 75 63l13 -13h12v25q-37 48 -37 113q0 115 226 226v50l-26 76l13 50q0 100 -100 213l-13 75v25l100 126v63l-12 125l12 13h26
q62 -29 62 -126v-25h13q188 34 188 63v12l-38 51v50zM529 1184v-88q0 -28 63 -37l25 25h13l37 -25l26 50q-10 138 -38 138q-97 0 -126 -63zM391 1096v-12l25 -25h13l-13 62zM592 1034q-50 -48 -50 -101l100 -75h25l13 -13l13 13l-13 113l25 50l-12 13h-13l-75 -13zM529 833
l13 -126q25 0 88 -75l37 -12l26 75v50q-117 88 -164 88zM831 620v-13l37 -100l13 12h12l13 -12h12v12q-22 57 -87 101zM567 595l-25 -51l13 -50l-26 -25q21 -125 76 -125l37 -13l38 151q-27 113 -113 113zM304 356l50 -38h100v126l13 13l-25 100q-138 -77 -138 -201z
M743 469l12 -12v-13l-25 -75l50 -25v75l-12 63l-13 -13h-12zM906 482v-25h-25l-13 12h-12v-100h25q37 0 37 50l-12 12v13l12 13v25h-12z" />
    <glyph glyph-name="percent" unicode="%" horiz-adv-x="1041" 
d="M929 1431h15q61 -25 61 -107q-30 0 -229 -350l16 -15v-15q-122 -238 -198 -518l-16 -15l16 -61h45q61 46 183 46q153 0 213 -107l-15 -15h-15l15 -15v-31q-103 -167 -320 -167q-83 0 -137 122h-30v-16l30 -106l-15 -15h-30q-34 0 -61 152h15l-15 61h-16
q-60 -259 -91 -259l-30 30v31q0 200 213 670l213 396q61 20 61 137l-15 -16h-31v31h-61q0 -48 -76 -92h-15v31h30v15h-30q-45 -109 -137 -152l-46 -76l31 -31q0 -213 -229 -213h-76q-152 0 -152 122q0 117 91 213l-15 15v16l31 30l15 -15l61 61h15l167 -16q95 58 305 107
l15 15q0 31 91 31q0 27 137 76zM426 1127l-15 15v-46q70 20 76 61h-15zM137 1081l-30 -107h30l122 76v16l-76 15h-46zM244 929h-46l-15 15h-16l-15 -76h31q152 0 152 45l15 61l-15 16h-15zM822 289l-30 -61v-15h15q23 0 46 61l-16 15h-15zM685 274v-30h15v30h-15z" />
    <glyph glyph-name="ampersand" unicode="&#x26;" horiz-adv-x="861" 
d="M327 1423q0 -22 126 -63l26 -25q88 -84 88 -176q-214 -83 -214 -202q0 -98 63 -227q33 -151 100 -151l126 13l25 -38l126 38v-13l13 13h38v-38q-28 -31 -315 -88l-13 -38l63 -138v-13l-12 -13v-12l25 -25v-38l-13 -13v-12q28 0 51 -114l-63 -50q-110 0 -290 113v26h13
l12 -13h13l25 25q0 -25 50 -25l13 -13v-12l13 12h12q25 0 25 -37h13l50 37q-64 253 -113 315l-302 -25h-63l-38 38v100l63 164l-13 38q74 71 126 227q-100 99 -100 252q0 147 239 201h12zM214 1310v-13q38 0 38 -25v-25l-25 -38v-25q48 -88 75 -88q112 54 114 88
q-28 100 -114 100l13 13v13q0 19 -51 37zM214 819q-88 -178 -88 -227l50 -38l38 13l25 -26h13l38 26h12l13 -13l50 13v12q-87 240 -126 240h-25z" />
    <glyph glyph-name="quotesingle" unicode="'" horiz-adv-x="346" 
d="M148 1416q51 0 85 -308l69 -154q-35 -51 -35 -137q-29 4 -171 359l-51 52v51h17l17 -17h17q17 154 52 154z" />
    <glyph glyph-name="parenleft" unicode="(" horiz-adv-x="569" 
d="M502 1431q0 -37 56 -37v-93h-93q-130 -46 -261 -390h-18l18 -56l-37 -56l19 -18q-13 -131 -37 -131l18 -18v-19l-18 -18q59 -199 130 -205v-18l-19 -19v-18l19 -56h-19l-56 18q0 -167 149 -185l19 -19v-19l-19 -55h-93q-73 0 -186 297l19 19q-37 0 -37 167q-43 0 -56 93
l19 55l-19 19q37 0 37 204l167 316q71 205 205 205zM316 316l74 -19v-37l-55 -18l-38 55zM130 260v-56h37l-18 56h-19zM409 242h37l-37 -38v38zM427 93l19 -19v-37q0 -37 -56 -37h-37v19h56l-19 18v19zM539 74v-18l-37 -37h-19v37z" />
    <glyph glyph-name="parenright" unicode=")" horiz-adv-x="869" 
d="M506 1439h48l189 -126l95 -253h-16l16 -48l-16 -47l16 -16l-31 -32q36 0 47 -79l-47 -16l15 -15v-16l-15 -64l15 -63l-47 -63l16 -16v-16q0 -47 -64 -47l16 -79q-31 0 -31 -79h-32v-32h32v-16l-64 -110l-15 15h-32l16 -15v-48l-48 -47l-15 79q-80 -16 -80 -63h-15l-32 31
q199 257 206 427v63q-59 317 -190 317l-16 47l-16 -16h-16q0 135 -300 317l-79 -16l-16 16v15q66 64 158 64q124 -52 301 -285q47 0 47 -79q46 0 142 -142l-15 -16v-16q37 0 94 -79h16l16 142q0 294 -174 411q-112 20 -126 80zM712 743v-31h-16l16 -64h31v16l-16 79h-15z
M395 142h16v-15q-7 -33 -79 -64v16zM538 63v-16l-48 -47h-16z" />
    <glyph glyph-name="asterisk" unicode="*" horiz-adv-x="689" 
d="M179 1384l47 -47l27 10l28 -28l19 18l18 -18v-9h-18v-10q22 0 46 -27q46 0 46 -19q0 -42 -28 -83v-19q4 -19 47 -37q0 17 83 28l18 19h19l9 -10h9l19 19h46l37 -65v-9q0 -14 -37 -28l-28 9l-9 -9v-9l-9 9h-9l-84 -18v-65q-27 0 -37 -46l10 9h18l-9 -46l-93 27l-9 -37
l28 -46l-19 -37h-27q-63 63 -102 148q-39 0 -74 37q-56 0 -74 19h-46l-19 37q28 27 102 37l9 -10l46 10h56l9 27l-111 250h9zM383 1032v-18q3 -25 46 -37v9zM216 1023v-19h10v19h-10z" />
    <glyph glyph-name="plus" unicode="+" horiz-adv-x="861" 
d="M535 892l14 -14v-15l-29 -72l29 -29v-14h-29v-29l43 -58l-14 -14q49 -231 101 -231q40 -57 115 -57q0 -29 43 -29l15 -15v-14l-87 -43q0 36 -144 72v-15l-14 -14v-14l14 -15q-14 -144 -43 -144h-58q-39 0 -57 159h14l-29 72l-14 -15h-15l-14 15q-254 -41 -288 -87l-58 15
v28q0 29 86 58v14l15 -14h14l188 87l43 -15q58 15 58 72l-15 58l15 14v15l-15 57l15 15v14l-15 15l43 14l-14 72v15q42 0 72 57l-14 15l14 14h15z" />
    <glyph glyph-name="comma" unicode="," horiz-adv-x="322" 
d="M205 189l65 -163l-97 -423h-65l-33 98q98 0 98 130l-33 -33h-32l-33 33v33l65 65v32l-32 163z" />
    <glyph glyph-name="hyphen" unicode="-" horiz-adv-x="670" 
d="M329 615q7 -33 81 -64q0 36 80 48l97 -48l64 16l16 -16v-16l-113 -81v16l-498 -96l-48 48q0 81 209 81l-16 16v16q71 80 128 80z" />
    <glyph glyph-name="hyphen" unicode="&#xad;" horiz-adv-x="670" 
d="M329 615q7 -33 81 -64q0 36 80 48l97 -48l64 16l16 -16v-16l-113 -81v16l-498 -96l-48 48q0 81 209 81l-16 16v16q71 80 128 80z" />
    <glyph glyph-name="period" unicode="." horiz-adv-x="557" 
d="M375 -4l13 -13q0 -52 -53 -52v-13q0 -31 92 -79q0 -81 -276 -184l-39 53q17 65 39 65h40l13 -13q52 20 52 39q-46 0 -78 119l13 -14h13q26 49 171 92zM178 -266l13 -53h13l26 53h-52z" />
    <glyph glyph-name="slash" unicode="/" horiz-adv-x="569" 
d="M184 1423h27l26 -79l-53 -211l53 -53v-26l-26 -26l26 -27v-131h-53q0 79 -52 79v-53l52 -132l-79 -79h106q0 106 158 448l-26 26l79 53q70 -17 131 -132v-26q-117 -126 -210 -527q-159 -205 -159 -501l-26 -26h-53q-63 0 -105 211l79 290l-53 52v264l53 105l-26 79l26 27
h26l-26 26v26l26 27l-26 26v26q105 110 105 264zM105 632v-52l53 -53v105h-53z" />
    <glyph glyph-name="zero" unicode="0" horiz-adv-x="734" 
d="M142 1423h33q0 -26 153 -252l33 11q296 0 361 -372h-10l10 -11v-11l-10 -11v-11l10 -11q0 -142 -131 -361l33 -98l-11 -66q25 -36 44 -153h-11l33 -66l-11 -11h-22q-30 22 -121 317h-21q-92 -76 -165 -76h-98q-101 79 -132 186l11 11v11l-11 33l11 11q-18 0 -32 76
q-42 0 -88 208v11l11 66l-11 33q0 72 186 230l-66 273v11zM361 1073l88 -252q38 -68 76 -263l11 -11h11q88 95 88 208q0 167 -175 307zM186 974l22 -44q-16 -43 -33 -43q-44 6 -44 76h-11q-32 0 -32 -120v-88q0 -139 186 -251l11 10h11q41 -32 98 -32h11l55 11v11
q-128 252 -230 525h-11q-25 0 -33 -55zM153 482v-33q51 -143 208 -143q75 25 99 77v11h-11l-66 -11l-33 11l-11 -11h-11l-164 99h-11z" />
    <glyph glyph-name="one" unicode="1" horiz-adv-x="839" 
d="M684 1431l32 -32v-32l-112 -365v-32h32v32q48 0 48 32l32 -32v-16q-271 -515 -271 -716h16l350 80l16 -48q0 -121 -207 -159l-16 -16l-47 16l-191 -32l16 -16v-15l-80 -80q-32 0 -32 95h-47l-128 -31h-63l-32 31l64 112l-16 16q72 63 143 63l16 -47q127 0 127 143
q64 133 175 556v32h-16l-191 -127l-32 32v15l318 255l32 175h-16q-122 -67 -461 -477h-16v47q262 373 557 541z" />
    <glyph glyph-name="two" unicode="2" horiz-adv-x="1064" 
d="M495 1425q222 0 257 -356h20l-40 -218l20 -20l-39 -257q197 -64 197 -99l20 20h20q99 -26 99 -60v-19q-139 0 -139 -80l-277 40q-164 -332 -336 -376h-79q-159 85 -159 396q97 152 357 198v-20q198 0 198 158l19 139h20q-40 123 -99 138h-20l-257 -99q-39 0 -39 80h-99
q-139 0 -139 118q250 317 495 317zM139 1108l19 -59l-19 -20l118 -20l357 159q-70 138 -159 138q-316 -83 -316 -198zM198 277l20 -79q237 59 237 198l-20 20h-99z" />
    <glyph glyph-name="three" unicode="3" 
d="M396 1423h36l18 -18l18 18h36q36 0 36 -90q84 0 108 -126q63 0 91 -198v-18l-73 -180q188 -50 325 -343v-108q0 -215 -343 -360h-198q-234 0 -450 324v180q77 108 162 108v-18l-72 -90v-54q0 -52 90 -162q595 79 595 252q-104 90 -325 126l-216 -36l-36 54v18
q0 76 306 145l108 108v54l-198 144l-162 -36q0 31 108 90l198 -54v18q-89 144 -234 144l-144 -216h-54v18q123 306 270 306zM360 234h-90v-36l342 -72q156 39 253 198v90h-18q-385 -180 -487 -180z" />
    <glyph glyph-name="four" unicode="4" horiz-adv-x="1056" 
d="M59 1424h19l39 -39v-39h-19l19 -136v-391h20l117 137q45 -52 253 -117l78 390l-19 20v58l39 39q33 0 58 -117l-39 -215l20 -19v-20l-20 -78q31 -214 215 -214h39l117 39v-20q-15 -136 -117 -136v-20h58l20 20q0 -59 78 -59v-19l-98 -20h-39l-19 20l-20 -20h-78l-19 20
l-117 -39l39 -332l-39 -117h-39v20l19 19v20q-73 0 -97 370h-20q-73 0 -312 -136l-39 117l-97 -39l-59 175v312l20 20l-20 19v410q12 117 59 117zM293 761l-39 -176v-136h19q234 78 234 117v39h20q-31 86 -215 156h-19z" />
    <glyph glyph-name="five" unicode="5" horiz-adv-x="1071" 
d="M580 1429q339 0 476 -145q0 -108 -62 -124l-124 103h-83q-587 0 -663 -207l21 -104l-21 -62q31 -82 62 -82h42q288 165 455 165q352 0 352 -352v-41q-145 -476 -414 -476q0 -69 -290 -104l-20 62l-21 -21h-21q-158 0 -186 207v21q0 99 103 249l42 41v21h-21l-83 -21
l-124 228q0 559 166 559q0 57 414 83zM228 600l62 -20q-83 -124 -83 -187v-62q0 -186 207 -186q270 0 456 290v41q-203 -161 -435 -228q-124 28 -124 63l41 41l21 -21q103 27 103 62l21 -20h41q290 175 290 290q-133 54 -145 103l-20 -21l-104 21h-62q-179 0 -269 -166z" />
    <glyph glyph-name="six" unicode="6" horiz-adv-x="861" 
d="M554 1423h37v-55q-202 -137 -388 -518v-55q257 280 444 295l55 -18l37 37l111 -93l-18 -18l-111 18q-218 0 -462 -295l-19 -93q24 -92 56 -92l129 37l19 -19v-18l18 18h18q333 -236 333 -369q-97 -167 -259 -167v-18q-554 140 -554 370l18 92l-18 74l111 333
q255 492 443 554zM129 536v-92q12 -111 56 -111h18l-18 18v19l18 55l-55 111h-19zM259 351q0 -37 -56 -37q38 -95 333 -166l129 18v56h-111q-69 0 -295 129z" />
    <glyph glyph-name="seven" unicode="7" horiz-adv-x="1079" 
d="M772 1407h17q52 0 52 -68q0 -287 -86 -653l17 -85h52l223 51l17 -17l-34 -69l17 -68l-17 -17h-103l-17 17l-18 -17h-51l-17 17h-17q0 -35 -52 -35v-34l-17 -189l69 -154v-17l-69 -69h-34q-38 0 -52 154q-71 0 -103 86v86l17 17l-17 86l-189 17l-326 -103l-34 69
q0 95 137 103q223 34 223 68l52 -17l171 17l18 -17l51 189v52l-69 17l-17 -17h-34l-17 17l-309 -103q0 34 -52 34q0 49 292 103l17 -17l52 51l17 -17q124 30 172 86l-18 17l52 189v137q-221 0 -601 -429l-68 -17h-52v34l378 344q88 111 377 171z" />
    <glyph glyph-name="eight" unicode="8" horiz-adv-x="1221" 
d="M872 1417l136 -54l28 27h27q136 -35 136 -82v-109q-54 -204 -354 -490l-55 -109v-191l300 -245v-28l-109 -109h-27l-82 28q-230 -55 -599 -55l-28 82l28 82l-28 27l-81 -27q-113 37 -164 136v82q0 199 245 272l28 27q-41 225 -109 300v109q569 327 708 327zM709 1226
q0 -54 136 -54l27 -27v-28q136 28 136 137h-27zM491 899v-54h54l354 136v55l-136 27q-191 0 -272 -164zM109 409q70 -136 218 -136l82 109l-27 190h-28q-150 0 -245 -163z" />
    <glyph glyph-name="nine" unicode="9" horiz-adv-x="1026" 
d="M685 1415q94 -32 136 -114v-23h-228l-45 -46v-23h91l68 46q206 0 274 -183l-91 -91v-45l23 22h23l45 -45l-45 -251l45 -343l-23 -159l46 -46v-23l-91 -91q-143 0 -183 502l23 68l-46 160h-205l-137 -23q-365 72 -365 160q0 178 502 502l91 23l23 -23q0 46 69 46zM434 981
q34 -91 68 -91h114q137 68 137 205l-68 23q-206 0 -251 -137zM183 936l114 -46v182z" />
    <glyph glyph-name="colon" unicode=":" horiz-adv-x="557" 
d="M404 1136l12 -11l24 -24h12v-36l-12 -106l12 -12v-11q0 -141 -178 -154q-236 0 -236 106v12l142 142h35q0 -36 59 -47v23h12l36 -23l23 35l-23 71l11 12l12 -12h12zM392 1101v-24h12v24h-12zM369 983q0 -47 -59 -47q0 -41 -95 -60l24 -23q153 12 153 59v71h-23zM121 888
l12 -35l35 23l24 -23h11v35l-59 12l-11 -12h-12zM251 416h23v-24zM463 416h24v-24h-24v24zM286 404h24q0 -36 82 -36l12 -11v-12l12 12h12l24 -24l-119 -71l-59 12q0 27 59 35v24q-47 0 -47 71z" />
    <glyph glyph-name="semicolon" unicode=";" horiz-adv-x="532" 
d="M399 1431h36v-18l-18 -18v-18h36l54 18v-91l-36 -54l-91 18l-108 -36l-18 18h-19l-72 -18v54q0 43 163 73zM380 525l19 -18v-18l-19 -109h-54l-36 37q35 0 72 108h18zM308 362h18q-33 -145 -72 -145h-19v37l-90 -19v-36l54 36l18 -18v-18q-106 0 -145 -163l-36 -36h-36
v18q139 301 235 308z" />
    <glyph glyph-name="semicolon" unicode="&#x37e;" horiz-adv-x="532" 
d="M399 1431h36v-18l-18 -18v-18h36l54 18v-91l-36 -54l-91 18l-108 -36l-18 18h-19l-72 -18v54q0 43 163 73zM380 525l19 -18v-18l-19 -109h-54l-36 37q35 0 72 108h18zM308 362h18q-33 -145 -72 -145h-19v37l-90 -19v-36l54 36l18 -18v-18q-106 0 -145 -163l-36 -36h-36
v18q139 301 235 308z" />
    <glyph glyph-name="less" unicode="&#x3c;" 
d="M741 1082l17 -17v-51l-426 -324v34h-34v-34l17 -17v-17l-51 -51v-34h102l34 -34l17 17h17l51 -34l52 17q0 -34 85 -34q0 -68 34 -68q0 68 34 68l153 -119v-17h-17l-102 34l-34 -34h-34q-664 64 -664 136v17q0 34 68 34q51 119 136 119l-17 17v17l204 136q0 63 120 103
q0 51 51 51l17 17v17l17 -17h51q0 68 102 68zM979 435h17v-34h-17v34zM928 401l17 -17v-17h-51z" />
    <glyph glyph-name="equal" unicode="=" 
d="M657 1123h34q104 -11 104 -52l-294 -121l-139 17l-121 -34h-34l-35 34v35l69 34l35 -34l69 52h17l18 -18h17l17 52l87 -17q66 52 156 52zM657 638h17l69 -69v-17l-104 -18q-103 23 -103 52v35zM795 482h52l35 -34q-28 -69 -121 -69l-18 17q0 -64 -398 -104v17l-17 -17
h-69l-35 35q121 17 364 121l51 -35q0 35 122 35z" />
    <glyph glyph-name="greater" unicode="&#x3e;" 
d="M403 1115l18 -18v-19l19 19h19l56 -19l19 19q2 -27 244 -94q0 -47 76 -57q0 -37 56 -37l19 -19v-19l-19 -94l56 38l38 -57q-41 -94 -132 -94q-138 -169 -281 -169l-19 -18v-19l-75 37q-76 -94 -188 -94l-75 38q0 -56 -188 -94h-38v56l38 38l18 -19l151 113h37l19 -19
l19 19h19l18 -19h19q0 50 339 188l112 150q-217 151 -376 151l-187 -38l-19 19v19h19l-19 19v37z" />
    <glyph glyph-name="question" unicode="?" horiz-adv-x="464" 
d="M261 1416q62 -16 62 -37l12 12h25q87 -97 87 -223l13 -13l-25 -25l12 -12v-13q0 -152 -99 -322q0 -50 -50 -50l13 -13v-12l-50 -62l-37 25q5 62 37 62v12q-37 0 -37 25l12 13h12l-12 12v37l25 25l-13 12v38q112 285 112 360l-87 37l-25 -25h-12v50h-12l-25 -25v-12
l37 -13l-161 -223h-13q0 37 -50 37l-12 12v38q82 161 261 273zM186 1279v-24h13v24h-13zM124 1205h37v25h-12zM360 1043l-25 -87q25 0 38 75v12h-13zM298 907l25 -25v25h-25zM149 298h37v-74l13 12h12q96 0 112 -87q0 -113 -124 -149q-71 0 -124 112v25zM186 87q54 29 62 62
l-12 12h-12q-38 -12 -38 -74z" />
    <glyph glyph-name="at" unicode="@" horiz-adv-x="2412" 
d="M2039 1359q235 -58 324 -229l19 -343q0 -462 -305 -553l-267 -38l-57 38l-57 -19q-161 0 -267 96l-152 57q0 -57 -210 -57q0 38 -114 57v-19l-38 -57v-39l95 -95l-38 -38l-19 19l-19 -19h-38l-96 76v19l19 19l-19 19v19l38 191l-76 76v38q130 229 343 229l19 -19
q130 164 248 210v38l19 57h-19q-554 -89 -667 -172h-76q0 -85 -172 -95q-400 -268 -400 -400l76 -267v-19q-57 0 -57 114q-76 0 -76 39v114q0 241 229 343l152 114l57 -19q0 45 153 95q0 33 247 134l58 -19l114 76l57 -38q0 64 610 133q71 76 133 76l57 -19v19q0 35 172 58z
M2001 1225l19 -95l19 19h76v-57h19l57 57v19zM1906 1206v-19h76v19h-76zM1258 749q44 0 95 -76q57 0 152 -229q148 -95 210 -95l76 19l19 -19q0 60 191 133l133 114l19 -19h19q0 -76 -95 -76q0 -44 -76 -95l-19 -57h133l115 228q-39 0 -77 96l77 114l-20 19h-19l39 172
l-134 95l-229 38l-76 -19h-57l-19 19q-308 -128 -457 -362zM1124 635q0 -48 -76 -134v-19l95 -19l153 38v57q-57 0 -134 77h-38z" />
    <glyph glyph-name="A" unicode="A" horiz-adv-x="1498" 
d="M684 1431q175 -27 175 -111q0 -111 206 -461h366q64 -32 64 -96q-59 -47 -112 -47l-16 15l-47 -15l-96 31q-79 -11 -79 -47l270 -652l-95 -48l-318 668h-16q-318 -28 -318 -175q-61 -429 -127 -429h-32l-32 31v64q0 203 48 318l-16 48q-120 0 -191 -80l-79 16
q-102 -6 -223 -79l-16 16v95l350 143q254 110 254 191l112 429l-64 159l16 16h16zM795 1034l-32 -191h16l48 -16q63 24 63 48l-63 159h-32z" />
    <glyph glyph-name="B" unicode="B" horiz-adv-x="996" 
d="M343 1423q264 0 445 -241l25 -51v-64q0 -199 -216 -317q381 -122 381 -254v-26q0 -93 -203 -241q-175 -118 -597 -204l-38 -25l-26 25v39q0 20 102 76l13 12v13l63 -13q244 0 534 229v13q-238 216 -343 216h-38v-13l89 -305l-38 -38h-13q-80 109 -178 381h-25l-64 -12
l-25 38v12l89 77q-51 126 -51 203l63 25l115 -203q143 0 292 203v38q0 164 -254 229q-236 0 -381 -241h-39l-25 25q0 158 305 267l114 13l140 -26q0 26 -165 76h-13q-186 0 -305 -139l-51 -13l-12 13v25q151 178 330 178zM572 673v-25q46 0 305 -191l25 26q0 92 -203 140
q0 22 -127 50z" />
    <glyph glyph-name="C" unicode="C" horiz-adv-x="1333" 
d="M573 1423q340 -93 340 -149v-21q-67 -130 -148 -149l-22 22l22 21v64h-64q-228 0 -446 -510v-21q0 -298 403 -510h361l213 -64l42 43h43v-43l-340 -106h-106q-659 79 -659 191q-212 103 -212 425v21q0 298 255 616q186 170 318 170zM425 1232v-21h42q0 53 85 63v22h-21z
" />
    <glyph glyph-name="D" unicode="D" horiz-adv-x="1648" 
d="M606 1431l101 -34l84 17q586 -175 842 -522v-168q-241 -215 -758 -421l-673 -185q-62 -118 -101 -118q-69 23 -101 84v34l84 135l84 -17l522 252v101l-33 135h16l-50 219l17 17h17q168 -108 168 -337h-17l17 -67q640 165 640 218v17q-286 387 -926 387l-253 -33l-33 50
v17q0 67 252 67q227 0 471 -50q0 54 -303 101l-16 -17h-17l-84 17l-438 -84l-34 50q0 34 118 68v-17q81 54 404 84zM926 471v-33l34 33h-34z" />
    <glyph glyph-name="E" unicode="E" horiz-adv-x="1363" 
d="M177 1437l142 -36h107l53 36h337q213 -4 213 -36l53 18q81 -34 89 -71l-54 -53q-212 0 -212 35l-71 -17v-18q177 -22 177 -71v-18l-18 -18v-17l-301 17h-124l-18 18l-18 -18h-160v-17q107 -391 160 -391h160q75 0 124 -71q230 -46 230 -106l-35 -35h-18l-17 17l-18 -17
h-18l-248 71l-71 -18l-53 18v-71q35 -36 35 -142q23 0 53 -124l373 -54l17 18h18q284 -42 284 -106v-18l-35 -36l-54 36h-53l-53 -36l-177 36q-256 -65 -337 -142h-54l-53 53l18 71l-18 53h-124q-136 0 -160 71v142q0 126 -35 195l-89 -17h-71q-40 0 -53 88l213 89v18
l-36 301h18q-18 66 -142 213v18l89 35l-18 89l18 18h35zM603 1330v-17h71v17h-71zM692 1330v-17l88 -18v35h-88zM355 621l17 -266v-18l18 -18v-17l107 17v89l-89 213h-53z" />
    <glyph glyph-name="F" unicode="F" horiz-adv-x="1760" 
d="M438 1429h38l115 -95h152q162 0 248 38l95 -19q120 0 229 57l57 -19l115 19h38l57 -57v-19q0 -38 -95 -38l38 -57v-19l-38 -38h-77l-514 38l-76 -19l-19 19h-20l-76 -19v-38l76 -210l305 19v-19l305 38l19 -19h19l20 19l95 -19h152l57 -57q0 -33 -114 -95l19 -58l-57 -38
l-381 57l-57 -19l-58 19l-228 -19q305 -571 305 -743l-19 -19h-58q-61 22 -209 419q-167 324 -248 324l-76 19q-229 -57 -286 -114h-210l-76 76q0 107 534 153q0 38 95 38v19l-248 419q29 76 57 76z" />
    <glyph glyph-name="G" unicode="G" horiz-adv-x="1131" 
d="M613 1431q223 -37 223 -167q-30 -93 -111 -93l-167 111q-218 0 -335 -353v-37q163 -539 465 -539q101 0 148 93q-109 139 -409 297l-37 56v19q0 55 205 55l93 -18l55 18l205 -18h74l56 -56q0 -56 -130 -56q37 -267 167 -557v-74q-47 -112 -149 -112h-55q-268 0 -651 353
q-167 98 -260 372q112 486 335 594q0 63 278 112zM743 725l-18 -19v-18q111 -38 111 -93h19v55q-63 75 -112 75zM706 223l-93 19q25 -67 279 -130h37l37 37v93q0 46 -74 55z" />
    <glyph glyph-name="H" unicode="H" horiz-adv-x="1251" 
d="M544 1446q273 -165 273 -306q136 -272 153 -391q113 -46 136 -103v-17q0 -25 -68 -51v-34q107 -313 187 -408v-68l-34 -34h-34q-31 0 -85 136h-17q0 -170 -51 -170q-34 0 -102 408q-74 238 -102 238l-188 34l-34 -34l-68 17l-34 -34q85 -397 170 -578l-17 -51
q-119 0 -119 136q-85 108 -136 374l-85 68h-51l-187 -51l-51 68l187 119q-68 0 -68 52v17l34 34h17l17 -17h17l17 17v17q0 155 -119 306v51l34 34q133 -43 255 -374l119 -17l17 17h17l17 -17h17l188 34v34q-17 174 -171 357q0 59 -102 136v34z" />
    <glyph glyph-name="I" unicode="I" horiz-adv-x="697" 
d="M409 1423q272 -34 272 -197v-45q0 -227 -514 -333q-119 0 -167 197q21 114 106 166q0 35 151 151q0 27 152 61zM212 1181q0 -51 212 -76v-15l-15 -15h-15l-91 15l-15 -15h-16l-75 30l-15 -15h-15l-46 15v-151l61 -15q318 47 318 181q45 0 75 46q0 80 -166 121v15
q-117 0 -197 -121zM242 833q212 -84 212 -485q19 0 30 -181l-30 -31v-15l15 -76q-30 0 -30 -45h-15q-37 0 -76 197l15 15v15q-45 86 -106 469q-75 31 -75 106z" />
    <glyph glyph-name="J" unicode="J" horiz-adv-x="1154" 
d="M980 1457q159 -9 159 -36v-13q-12 -36 -73 -36h-25l-73 12l-37 -12v12q-75 -25 -735 -86q0 -24 -61 -24l12 -62l-25 -24q-5 29 -98 61l-12 61q29 29 184 62h12l49 -13q33 25 441 74l12 -12zM931 1249l49 -12l73 12l62 -86l-37 -48h-25l-73 24v24l-61 -12v12l-13 -12h-12
l-61 25v-25h-49l-37 25h-24l-319 -135q-69 -70 -135 -73l-24 24l-61 -12v24q49 0 49 62h36v24h-36v12q0 25 232 61q107 62 196 62l13 -13l85 13h147zM600 1041q23 0 123 -306h-13l135 -404l74 -123v-12l-37 -37h-37l-110 123v-13l24 -159l-12 -12h-49q-41 0 -61 208l-12 -12
h-25l-73 73h-13l-49 -12l-36 12l-25 -24l-12 12q-123 -114 -123 -208l-12 -12h-12l-25 36l13 111h-25q-110 -72 -110 -172v-24l49 -74v-12h-12q-135 0 -135 184l49 85q190 123 220 123l13 -12q0 41 232 61l86 -25v25l-86 416v25l25 24l37 -24v24l-25 98zM637 661v-24h12v24
h-12zM686 478v-37h12v37h-12zM612 355v-37h13v37h-13zM245 318v-24h24z" />
    <glyph glyph-name="K" unicode="K" horiz-adv-x="1086" 
d="M981 1438l34 -51v-17q-138 -138 -237 -372q-245 -211 -254 -271q437 -219 542 -304v-17q-33 -77 -68 -85h-17q-423 288 -626 288l-17 -17v-17l17 -51h-17l17 -16v-187l17 -253q-34 0 -34 -68h-118q0 74 -51 135v85q0 254 -101 254l-34 34q0 50 68 152l-51 338h17
q-68 133 -68 220v17l34 34h17q67 -16 135 -220h17l51 51q46 0 67 -220q85 0 474 423q112 135 186 135zM457 795v-17l254 254v17z" />
    <glyph glyph-name="L" unicode="L" horiz-adv-x="929" 
d="M444 1453l61 -61q0 -99 -202 -544l20 -21v-80l-81 -121l20 -21v-20l-20 -141q273 -121 404 -121l202 40l60 -80l-121 -61l-20 20h-20l-41 -40h-20l-81 20l-80 -20l-303 60q-33 -262 -202 -262l-20 61l161 988h41v-40h20q113 323 222 444z" />
    <glyph glyph-name="M" unicode="M" horiz-adv-x="1176" 
d="M829 1431h107q64 0 161 -80l-27 -27q80 0 80 -134v-53q0 -85 -147 -187q-83 -104 -227 -174l-27 -121l13 -13v-13l-26 -54l40 -227l-14 -40l54 -107q-54 -201 -80 -201q-41 0 -41 147l14 54l-107 548l-14 13l-13 -13l-294 40l53 -361q-13 -40 -80 -40q-41 10 -94 281
l-160 214v40l40 147q89 0 147 -107l121 -13l13 13h13l228 -40l40 13v40q3 161 27 161l-14 13v14q15 110 214 267zM923 1404l-27 -53q147 -106 147 -241h14l26 120q-40 110 -147 174h-13zM802 1337l-53 -334l27 -53q187 62 187 93l13 107q-24 187 -147 187h-27zM415 856v-13
h66v13h-66zM508 843v-14h80v14h-80z" />
    <glyph glyph-name="N" unicode="N" horiz-adv-x="742" 
d="M556 1438q48 -12 48 -48l-24 -49l12 -12h12l-36 -386l12 -61l-12 -12l24 -290l-12 -12v-12q48 -322 145 -508v-12q0 -36 -48 -36q-144 125 -339 471q-96 121 -96 157l-12 -12h-12l12 -12v-278l24 -205l-36 -24h-25q-42 0 -48 145h-12l-36 -24q-34 0 -49 120v37l12 96
l-36 218h12l-12 12v157l-24 36l48 61v12l-48 133v24q24 48 73 48q36 -43 36 -133q287 -372 411 -652h12v12l-12 36l12 60q-9 154 -37 182l25 24l-12 60v12l12 49l-12 48v24l12 73l-12 12v12l12 48l-12 36l12 37l-12 12l36 181v48l-24 73zM169 1136q0 -24 36 -24l13 -12v-12
l-37 -37l-36 73l12 12h12zM145 761v-48h48zM145 689l12 -85h24q0 36 49 36v13q-37 0 -37 48zM121 302v-24h12v24h-12z" />
    <glyph glyph-name="O" unicode="O" horiz-adv-x="1341" 
d="M479 1438h51l25 -25l25 25h278q151 -60 151 -126h25l26 25h25q252 -180 252 -429q0 -545 -580 -883l-252 -25l-26 25h-25l-101 -25q-163 73 -252 202l-101 202v75l50 51l-25 25v25l25 25v26h-50l50 277l-25 25v26q174 479 454 479zM151 732q0 -137 152 -303v-25
q-101 0 -101 -51l227 -227l277 76l-25 25v25q177 115 177 303q75 91 75 252v26l-25 151l25 25v25q0 84 -252 253q-385 0 -454 -328zM1034 1135l-25 -202l51 -50v-76l-26 -25l26 -25l-76 -252l25 -26h25l101 328v177l25 25v25zM353 378h25l-50 -50h-25zM378 353h76v-50h-25z
" />
    <glyph glyph-name="P" unicode="P" horiz-adv-x="1120" 
d="M429 1423l17 -17h17l86 17l68 -51l17 17h17q361 -110 361 -257q85 0 85 -206l-103 -189l-497 -274l17 -120h-17l17 -17v-17l-17 -18v-17l69 -154l-17 -17v-17l17 -17v-18l-17 -51h-86q0 51 -69 51l-17 18v137l-17 68l17 17q-17 138 -51 138q-57 -52 -206 -86
q-120 17 -120 51v17l86 120l85 -17h18q0 50 137 86v86l-17 188l17 52l-52 154v103q140 0 172 -326l-17 -17v-17l34 -137l-17 -52h85q261 65 395 258l34 68l-68 189l-18 -17h-17q-44 46 -223 68l-17 17v17l-17 -17h-17l-34 35v17l154 -35v18q0 46 -223 85l-103 -17v-34h103
l34 -34l-17 -18h-223l-188 -137h-35l-34 35q0 126 412 291z" />
    <glyph glyph-name="Q" unicode="Q" horiz-adv-x="1333" 
d="M675 1431h41q449 -142 449 -368q62 0 62 -41v-20l-21 -21v-20q41 0 61 -205l-20 -20h-20l20 -20v-21q-57 -170 -204 -368l265 -307l-20 -20h-41l-225 102l-20 -20h-21l-204 102l-225 -20h-41q-434 0 -511 613l41 41l-21 20v21q29 212 184 388l21 -20h20l205 143l20 -21
h21q122 82 184 82zM368 1186h41v-82l-61 41q-144 -123 -144 -389v-61q92 -388 246 -388l41 -41l122 20l62 -20v20q0 59 -184 286v21l81 123q69 0 144 -62l20 21l204 -205q41 92 41 266q-122 572 -265 572q-348 -74 -348 -122zM1002 1124v-20l81 -266h-20l20 -122h21l20 122
q0 197 -122 286zM695 491q51 -143 164 -143v20l-143 123h-21zM920 266v-82l102 -41h21l-103 123h-20z" />
    <glyph glyph-name="R" unicode="R" horiz-adv-x="1214" 
d="M525 1431l32 -32l47 16q318 -55 318 -127q32 0 32 -48l-127 -175l-16 16h-16q-35 -51 -302 -206v-16q0 -64 143 -64l143 -159l-32 -32q-132 175 -254 175v-48l238 -174l16 15h16q72 -16 112 -111q122 -69 159 -143q84 0 159 -175q-74 -87 -318 -127l-16 -16l-32 32
q218 98 222 159q-223 223 -604 445q0 36 -79 48v-16l47 -207l-47 -32h-16q-159 144 -159 255l-111 -32l-32 48v16l63 79v95q-74 0 -111 223h16l-16 16v79q52 92 111 128l-16 16v15l32 32l48 -32l16 48l48 -16zM32 1113q79 -8 79 -143l-16 -48l16 16h32v-48h16v64l-32 143
l48 32q89 0 143 -239q191 43 191 96q83 79 270 175v47q-37 85 -191 128l-16 -16l-79 16h-191q-175 -56 -175 -112z" />
    <glyph glyph-name="S" unicode="S" horiz-adv-x="1573" 
d="M882 1416h213q321 -46 321 -134v-26l-107 -107h-27l-106 80h-214q-294 -41 -294 -134q35 -87 508 -293q374 -448 374 -588v-27q-162 -187 -455 -187l-26 27h-27l-27 -27l-374 53l-27 -26h-26l-107 26l-374 -53q-107 27 -107 107l107 160l187 -27q962 45 962 134
q-100 159 -802 588l-53 267q279 187 481 187zM1336 294v-54h27v54h-27zM935 187v-27h241l106 54v26h-160z" />
    <glyph glyph-name="T" unicode="T" horiz-adv-x="2405" 
d="M1687 1406l188 -24h140l24 -23l70 23l281 -117q-35 -93 -70 -93h-71l-421 93q-156 -47 -492 -47l-24 -23q211 -953 211 -1195h-94q-113 0 -281 867l47 47l-23 164v47l23 23v24l-70 23q-415 -94 -750 -258v-47h47v-70l-117 -23q-305 36 -305 93v47q16 47 328 141
q0 105 492 187q0 63 867 141z" />
    <glyph glyph-name="U" unicode="U" horiz-adv-x="1603" 
d="M143 1430h57l86 -57l-57 -401l143 -629h28q286 0 372 515l29 29h28q64 0 86 -315l86 -86h29l57 172l-57 286l28 114l-28 143l85 57q143 -36 143 -85l-28 -29q114 -794 343 -972v-29h-29q-200 0 -200 143q-104 -86 -200 -86l-143 29q-143 -229 -429 -229
q-572 208 -572 572v57q42 801 143 801zM543 229l29 -29h29l257 143l-29 86h-85zM1173 429l-29 -86l143 -57v57q-86 0 -86 86h-28z" />
    <glyph glyph-name="V" unicode="V" horiz-adv-x="1528" 
d="M201 1456q54 0 150 -728l201 -452h25q363 1054 628 1054l226 126l25 -25l25 25l25 -25v-25q-64 0 -276 -251l-276 -527q-130 -628 -301 -628q-242 0 -302 201l-351 1079v25l25 25v25l101 -50v50l-26 76l26 25h75z" />
    <glyph glyph-name="W" unicode="W" horiz-adv-x="1326" 
d="M1263 1446h37l-55 -329h-37v18q9 219 55 219l-18 19v18zM1226 1080l19 -18v-37l-37 -55v-18l18 -73l-18 -55l92 -37q-95 -677 -220 -677q0 -37 -92 -37h-73q-86 0 -274 165h-19q-108 -238 -347 -238q-133 0 -238 311v18l18 19v18l-37 37l19 18l-37 92l55 18v36h-37v19
l19 73l-19 18v19q14 201 55 201h19l36 -37v-18l-18 -18l36 -92h-18l37 -55l55 19q55 -72 73 -330q56 -201 91 -201h19l128 73v18l-37 37l19 55l-19 55h19l36 36l128 -36q0 53 73 91q61 0 110 -293l73 -36q206 0 257 897l18 18h18zM1226 769v-19l19 -54h18v73h-37zM128 586
l18 -19l-18 -91q37 -43 73 -293h19v37l-55 384l-19 -18h-18zM714 329v-54h36v18z" />
    <glyph glyph-name="X" unicode="X" horiz-adv-x="1350" 
d="M1252 1434h52l26 -26h26q0 -96 -235 -235q0 -73 -156 -208v-26l261 -183l78 -26v-26l-52 -52l-365 156l-105 -26q339 -269 339 -365l26 26h26l53 -52l-53 -52q-331 208 -521 261h-26q0 -78 -78 -78q0 -105 -157 -183l-261 -261h-26l-78 78q108 9 209 235q133 0 182 287
q105 0 105 78q-51 0 -339 496l-79 78l26 26h26q580 -339 652 -339h26l235 261l104 78l27 -26h26l52 52h-78zM495 600v-52l53 52h-53zM391 469v-78h26v78h-26zM0 78h26l52 -52v-26h-26l-52 52v26z" />
    <glyph glyph-name="Y" unicode="Y" horiz-adv-x="1146" 
d="M1122 1438l14 -43q0 -58 -72 -58v-28q-57 0 -57 -87q-69 -86 -115 -86q-2 -40 -115 -144q-45 -117 -144 -187q0 -41 -245 -388q-18 -86 -72 -86l15 -15v-14q-41 0 -87 -173q-57 -11 -57 -115l-14 -14h-15l-14 14v29h29l-29 43v43q0 57 86 144v29h-29l-143 -230h-29
q-29 0 -29 43l360 518q0 31 -144 172q-158 169 -158 245l86 43l-29 115q86 -38 144 -173q61 -133 187 -258q80 39 374 417q110 0 158 143h29q0 43 72 43q7 58 43 58zM374 777v-29l29 -29h28v14l-43 44h-14z" />
    <glyph glyph-name="Z" unicode="Z" horiz-adv-x="1453" 
d="M831 1408h93l46 -46l115 46q0 -46 185 -69l23 -115h-23l-439 -370h-69q185 241 185 300l-23 24h-93l-231 -47l-46 47q0 -70 -46 -70l-69 46h-23q0 -115 -347 -138l-69 162q118 115 277 115v-23l231 69l115 -46q0 69 162 69zM900 1293v-46h70l-46 46h-24zM993 1293v-23h69
v23h-69zM739 970v-23l-23 -70h-46v23zM739 831l23 -23v-23q-46 0 -46 -69h-46v23q34 92 69 92zM577 762h23v-23l-23 -69h46l-69 -185l23 -23l-92 -46l46 -47l-23 -23v-46l115 -23q0 92 116 92l115 -23l70 47q507 -39 507 -116l-69 -46q-161 0 -161 46l-23 -23h-139l-23 23
q-69 0 -69 -69l-23 -23h-24q-23 69 -138 69q-116 -139 -277 -139l-116 -115h-184l-93 92v93q116 0 116 184q329 393 369 393zM485 623l-23 -115l115 115h-92zM416 485l-116 -208l23 -69l-46 -46l46 -47l139 347v23h-46zM600 254v-23h46v23h-46z" />
    <glyph glyph-name="bracketleft" unicode="[" horiz-adv-x="758" 
d="M586 1423v-56l-98 -28l-28 42q0 34 126 42zM419 1381l41 -56q-32 0 -83 -55l-70 -14v14l-42 -14v-14l84 -14l14 14h14l14 -14h14l41 14v-14l14 14h14l84 -28h42l14 -56l-14 -14h-14l-42 28l-28 -28l-14 14v14l-14 -14h-14l-28 28q-181 0 -181 -140v-28h-14l14 -14v-13
l-28 -56l14 -14v-14l-56 -391l14 -56v-28l-14 -13v-14q28 0 42 -98h28q70 0 70 28l125 -28l70 14q209 0 209 -84l-14 -14h-83l-14 14l-14 -14h-28l-14 14l-14 -14h-42l-307 -14l-14 -69v-14q0 -28 56 -28v-28l42 14l112 -14l41 42l98 -28q0 39 112 56l28 -28l41 14
q-105 -98 -306 -98l-84 -28l-56 14l-14 -14h-14q-112 0 -153 293l-28 84l14 14v14l-70 348h14l-14 42l28 84l-28 70l14 14v14l-28 69l42 112l-14 42l153 97l42 -14q0 39 154 56zM56 1130v-14h28v-167l-28 -84q42 0 42 -42l-14 -14v-14l14 -42h-14l42 -83l-14 -42h28l13 84
l-27 27q27 28 69 238l-14 14l56 223l-14 14q-124 -28 -167 -98z" />
    <glyph glyph-name="backslash" unicode="\" horiz-adv-x="757" 
d="M202 1446h45l23 -80l-23 -20q0 -222 270 -844h-22q0 -60 67 -60v-60h-90l-22 80l22 20q-154 0 -202 341l-90 141h67v60l-22 -20h-23l-22 20v61l22 20v20l-45 40v20l23 20l-23 60l23 61l-45 40v20zM45 1004q157 -142 247 -642q36 0 158 -342l-23 -20h-22q-50 0 -113 221
q-90 0 -90 60l23 20v20l-225 663l22 20h23zM562 362l180 -221l-67 -61h-23q-45 0 -45 101l-90 100v40z" />
    <glyph glyph-name="bracketright" unicode="]" horiz-adv-x="758" 
d="M242 1423q76 0 76 -30l15 15h15l91 -15l76 15l15 -15v-16l15 16h91q0 -46 45 -46q15 -64 91 -136v-91l-76 -136l15 -76l-30 -91l46 -45l-16 -106v-30l31 -136l-15 -46h15q30 0 30 -45q-9 -61 -121 -61h-46l-15 -45l46 -46l-15 -60l15 -152l-61 -45q-45 81 -45 227h-15
q-176 -15 -303 -60l-15 15l-106 -15h-46l-45 45l30 45l76 -15l45 15v-15q227 61 227 91l-15 15l-15 -15h-197l-15 61q26 30 227 45l15 -15h16l60 30l46 -15v15q0 270 121 636v76q-115 106 -394 106l-151 -16l-15 16v30zM605 636l-15 -15v-16l15 -15h16l15 15v16l-15 15h-16z
M621 545l-31 -61l46 -30l30 30z" />
    <glyph glyph-name="a" unicode="a" horiz-adv-x="1498" 
d="M684 1431q175 -27 175 -111q0 -111 206 -461h366q64 -32 64 -96q-59 -47 -112 -47l-16 15l-47 -15l-96 31q-79 -11 -79 -47l270 -652l-95 -48l-318 668h-16q-318 -28 -318 -175q-61 -429 -127 -429h-32l-32 31v64q0 203 48 318l-16 48q-120 0 -191 -80l-79 16
q-102 -6 -223 -79l-16 16v95l350 143q254 110 254 191l112 429l-64 159l16 16h16zM795 1034l-32 -191h16l48 -16q63 24 63 48l-63 159h-32z" />
    <glyph glyph-name="b" unicode="b" horiz-adv-x="996" 
d="M343 1423q264 0 445 -241l25 -51v-64q0 -199 -216 -317q381 -122 381 -254v-26q0 -93 -203 -241q-175 -118 -597 -204l-38 -25l-26 25v39q0 20 102 76l13 12v13l63 -13q244 0 534 229v13q-238 216 -343 216h-38v-13l89 -305l-38 -38h-13q-80 109 -178 381h-25l-64 -12
l-25 38v12l89 77q-51 126 -51 203l63 25l115 -203q143 0 292 203v38q0 164 -254 229q-236 0 -381 -241h-39l-25 25q0 158 305 267l114 13l140 -26q0 26 -165 76h-13q-186 0 -305 -139l-51 -13l-12 13v25q151 178 330 178zM572 673v-25q46 0 305 -191l25 26q0 92 -203 140
q0 22 -127 50z" />
    <glyph glyph-name="c" unicode="c" horiz-adv-x="1333" 
d="M573 1423q340 -93 340 -149v-21q-67 -130 -148 -149l-22 22l22 21v64h-64q-228 0 -446 -510v-21q0 -298 403 -510h361l213 -64l42 43h43v-43l-340 -106h-106q-659 79 -659 191q-212 103 -212 425v21q0 298 255 616q186 170 318 170zM425 1232v-21h42q0 53 85 63v22h-21z
" />
    <glyph glyph-name="d" unicode="d" horiz-adv-x="1648" 
d="M606 1431l101 -34l84 17q586 -175 842 -522v-168q-241 -215 -758 -421l-673 -185q-62 -118 -101 -118q-69 23 -101 84v34l84 135l84 -17l522 252v101l-33 135h16l-50 219l17 17h17q168 -108 168 -337h-17l17 -67q640 165 640 218v17q-286 387 -926 387l-253 -33l-33 50
v17q0 67 252 67q227 0 471 -50q0 54 -303 101l-16 -17h-17l-84 17l-438 -84l-34 50q0 34 118 68v-17q81 54 404 84zM926 471v-33l34 33h-34z" />
    <glyph glyph-name="e" unicode="e" horiz-adv-x="1363" 
d="M177 1437l142 -36h107l53 36h337q213 -4 213 -36l53 18q81 -34 89 -71l-54 -53q-212 0 -212 35l-71 -17v-18q177 -22 177 -71v-18l-18 -18v-17l-301 17h-124l-18 18l-18 -18h-160v-17q107 -391 160 -391h160q75 0 124 -71q230 -46 230 -106l-35 -35h-18l-17 17l-18 -17
h-18l-248 71l-71 -18l-53 18v-71q35 -36 35 -142q23 0 53 -124l373 -54l17 18h18q284 -42 284 -106v-18l-35 -36l-54 36h-53l-53 -36l-177 36q-256 -65 -337 -142h-54l-53 53l18 71l-18 53h-124q-136 0 -160 71v142q0 126 -35 195l-89 -17h-71q-40 0 -53 88l213 89v18
l-36 301h18q-18 66 -142 213v18l89 35l-18 89l18 18h35zM603 1330v-17h71v17h-71zM692 1330v-17l88 -18v35h-88zM355 621l17 -266v-18l18 -18v-17l107 17v89l-89 213h-53z" />
    <glyph glyph-name="f" unicode="f" horiz-adv-x="1760" 
d="M438 1429h38l115 -95h152q162 0 248 38l95 -19q120 0 229 57l57 -19l115 19h38l57 -57v-19q0 -38 -95 -38l38 -57v-19l-38 -38h-77l-514 38l-76 -19l-19 19h-20l-76 -19v-38l76 -210l305 19v-19l305 38l19 -19h19l20 19l95 -19h152l57 -57q0 -33 -114 -95l19 -58l-57 -38
l-381 57l-57 -19l-58 19l-228 -19q305 -571 305 -743l-19 -19h-58q-61 22 -209 419q-167 324 -248 324l-76 19q-229 -57 -286 -114h-210l-76 76q0 107 534 153q0 38 95 38v19l-248 419q29 76 57 76z" />
    <glyph glyph-name="g" unicode="g" horiz-adv-x="1131" 
d="M613 1431q223 -37 223 -167q-30 -93 -111 -93l-167 111q-218 0 -335 -353v-37q163 -539 465 -539q101 0 148 93q-109 139 -409 297l-37 56v19q0 55 205 55l93 -18l55 18l205 -18h74l56 -56q0 -56 -130 -56q37 -267 167 -557v-74q-47 -112 -149 -112h-55q-268 0 -651 353
q-167 98 -260 372q112 486 335 594q0 63 278 112zM743 725l-18 -19v-18q111 -38 111 -93h19v55q-63 75 -112 75zM706 223l-93 19q25 -67 279 -130h37l37 37v93q0 46 -74 55z" />
    <glyph glyph-name="h" unicode="h" horiz-adv-x="1251" 
d="M544 1446q273 -165 273 -306q136 -272 153 -391q113 -46 136 -103v-17q0 -25 -68 -51v-34q107 -313 187 -408v-68l-34 -34h-34q-31 0 -85 136h-17q0 -170 -51 -170q-34 0 -102 408q-74 238 -102 238l-188 34l-34 -34l-68 17l-34 -34q85 -397 170 -578l-17 -51
q-119 0 -119 136q-85 108 -136 374l-85 68h-51l-187 -51l-51 68l187 119q-68 0 -68 52v17l34 34h17l17 -17h17l17 17v17q0 155 -119 306v51l34 34q133 -43 255 -374l119 -17l17 17h17l17 -17h17l188 34v34q-17 174 -171 357q0 59 -102 136v34z" />
    <glyph glyph-name="i" unicode="i" horiz-adv-x="697" 
d="M409 1423q272 -34 272 -197v-45q0 -227 -514 -333q-119 0 -167 197q21 114 106 166q0 35 151 151q0 27 152 61zM212 1181q0 -51 212 -76v-15l-15 -15h-15l-91 15l-15 -15h-16l-75 30l-15 -15h-15l-46 15v-151l61 -15q318 47 318 181q45 0 75 46q0 80 -166 121v15
q-117 0 -197 -121zM242 833q212 -84 212 -485q19 0 30 -181l-30 -31v-15l15 -76q-30 0 -30 -45h-15q-37 0 -76 197l15 15v15q-45 86 -106 469q-75 31 -75 106z" />
    <glyph glyph-name="j" unicode="j" horiz-adv-x="1154" 
d="M980 1457q159 -9 159 -36v-13q-12 -36 -73 -36h-25l-73 12l-37 -12v12q-75 -25 -735 -86q0 -24 -61 -24l12 -62l-25 -24q-5 29 -98 61l-12 61q29 29 184 62h12l49 -13q33 25 441 74l12 -12zM931 1249l49 -12l73 12l62 -86l-37 -48h-25l-73 24v24l-61 -12v12l-13 -12h-12
l-61 25v-25h-49l-37 25h-24l-319 -135q-69 -70 -135 -73l-24 24l-61 -12v24q49 0 49 62h36v24h-36v12q0 25 232 61q107 62 196 62l13 -13l85 13h147zM600 1041q23 0 123 -306h-13l135 -404l74 -123v-12l-37 -37h-37l-110 123v-13l24 -159l-12 -12h-49q-41 0 -61 208l-12 -12
h-25l-73 73h-13l-49 -12l-36 12l-25 -24l-12 12q-123 -114 -123 -208l-12 -12h-12l-25 36l13 111h-25q-110 -72 -110 -172v-24l49 -74v-12h-12q-135 0 -135 184l49 85q190 123 220 123l13 -12q0 41 232 61l86 -25v25l-86 416v25l25 24l37 -24v24l-25 98zM637 661v-24h12v24
h-12zM686 478v-37h12v37h-12zM612 355v-37h13v37h-13zM245 318v-24h24z" />
    <glyph glyph-name="k" unicode="k" horiz-adv-x="1086" 
d="M981 1438l34 -51v-17q-138 -138 -237 -372q-245 -211 -254 -271q437 -219 542 -304v-17q-33 -77 -68 -85h-17q-423 288 -626 288l-17 -17v-17l17 -51h-17l17 -16v-187l17 -253q-34 0 -34 -68h-118q0 74 -51 135v85q0 254 -101 254l-34 34q0 50 68 152l-51 338h17
q-68 133 -68 220v17l34 34h17q67 -16 135 -220h17l51 51q46 0 67 -220q85 0 474 423q112 135 186 135zM457 795v-17l254 254v17z" />
    <glyph glyph-name="l" unicode="l" horiz-adv-x="929" 
d="M444 1453l61 -61q0 -99 -202 -544l20 -21v-80l-81 -121l20 -21v-20l-20 -141q273 -121 404 -121l202 40l60 -80l-121 -61l-20 20h-20l-41 -40h-20l-81 20l-80 -20l-303 60q-33 -262 -202 -262l-20 61l161 988h41v-40h20q113 323 222 444z" />
    <glyph glyph-name="m" unicode="m" horiz-adv-x="1176" 
d="M829 1431h107q64 0 161 -80l-27 -27q80 0 80 -134v-53q0 -85 -147 -187q-83 -104 -227 -174l-27 -121l13 -13v-13l-26 -54l40 -227l-14 -40l54 -107q-54 -201 -80 -201q-41 0 -41 147l14 54l-107 548l-14 13l-13 -13l-294 40l53 -361q-13 -40 -80 -40q-41 10 -94 281
l-160 214v40l40 147q89 0 147 -107l121 -13l13 13h13l228 -40l40 13v40q3 161 27 161l-14 13v14q15 110 214 267zM923 1404l-27 -53q147 -106 147 -241h14l26 120q-40 110 -147 174h-13zM802 1337l-53 -334l27 -53q187 62 187 93l13 107q-24 187 -147 187h-27zM415 856v-13
h66v13h-66zM508 843v-14h80v14h-80z" />
    <glyph glyph-name="n" unicode="n" horiz-adv-x="742" 
d="M556 1438q48 -12 48 -48l-24 -49l12 -12h12l-36 -386l12 -61l-12 -12l24 -290l-12 -12v-12q48 -322 145 -508v-12q0 -36 -48 -36q-144 125 -339 471q-96 121 -96 157l-12 -12h-12l12 -12v-278l24 -205l-36 -24h-25q-42 0 -48 145h-12l-36 -24q-34 0 -49 120v37l12 96
l-36 218h12l-12 12v157l-24 36l48 61v12l-48 133v24q24 48 73 48q36 -43 36 -133q287 -372 411 -652h12v12l-12 36l12 60q-9 154 -37 182l25 24l-12 60v12l12 49l-12 48v24l12 73l-12 12v12l12 48l-12 36l12 37l-12 12l36 181v48l-24 73zM169 1136q0 -24 36 -24l13 -12v-12
l-37 -37l-36 73l12 12h12zM145 761v-48h48zM145 689l12 -85h24q0 36 49 36v13q-37 0 -37 48zM121 302v-24h12v24h-12z" />
    <glyph glyph-name="o" unicode="o" horiz-adv-x="1341" 
d="M479 1438h51l25 -25l25 25h278q151 -60 151 -126h25l26 25h25q252 -180 252 -429q0 -545 -580 -883l-252 -25l-26 25h-25l-101 -25q-163 73 -252 202l-101 202v75l50 51l-25 25v25l25 25v26h-50l50 277l-25 25v26q174 479 454 479zM151 732q0 -137 152 -303v-25
q-101 0 -101 -51l227 -227l277 76l-25 25v25q177 115 177 303q75 91 75 252v26l-25 151l25 25v25q0 84 -252 253q-385 0 -454 -328zM1034 1135l-25 -202l51 -50v-76l-26 -25l26 -25l-76 -252l25 -26h25l101 328v177l25 25v25zM353 378h25l-50 -50h-25zM378 353h76v-50h-25z
" />
    <glyph glyph-name="p" unicode="p" horiz-adv-x="1120" 
d="M429 1423l17 -17h17l86 17l68 -51l17 17h17q361 -110 361 -257q85 0 85 -206l-103 -189l-497 -274l17 -120h-17l17 -17v-17l-17 -18v-17l69 -154l-17 -17v-17l17 -17v-18l-17 -51h-86q0 51 -69 51l-17 18v137l-17 68l17 17q-17 138 -51 138q-57 -52 -206 -86
q-120 17 -120 51v17l86 120l85 -17h18q0 50 137 86v86l-17 188l17 52l-52 154v103q140 0 172 -326l-17 -17v-17l34 -137l-17 -52h85q261 65 395 258l34 68l-68 189l-18 -17h-17q-44 46 -223 68l-17 17v17l-17 -17h-17l-34 35v17l154 -35v18q0 46 -223 85l-103 -17v-34h103
l34 -34l-17 -18h-223l-188 -137h-35l-34 35q0 126 412 291z" />
    <glyph glyph-name="q" unicode="q" horiz-adv-x="1333" 
d="M675 1431h41q449 -142 449 -368q62 0 62 -41v-20l-21 -21v-20q41 0 61 -205l-20 -20h-20l20 -20v-21q-57 -170 -204 -368l265 -307l-20 -20h-41l-225 102l-20 -20h-21l-204 102l-225 -20h-41q-434 0 -511 613l41 41l-21 20v21q29 212 184 388l21 -20h20l205 143l20 -21
h21q122 82 184 82zM368 1186h41v-82l-61 41q-144 -123 -144 -389v-61q92 -388 246 -388l41 -41l122 20l62 -20v20q0 59 -184 286v21l81 123q69 0 144 -62l20 21l204 -205q41 92 41 266q-122 572 -265 572q-348 -74 -348 -122zM1002 1124v-20l81 -266h-20l20 -122h21l20 122
q0 197 -122 286zM695 491q51 -143 164 -143v20l-143 123h-21zM920 266v-82l102 -41h21l-103 123h-20z" />
    <glyph glyph-name="r" unicode="r" horiz-adv-x="1214" 
d="M525 1431l32 -32l47 16q318 -55 318 -127q32 0 32 -48l-127 -175l-16 16h-16q-35 -51 -302 -206v-16q0 -64 143 -64l143 -159l-32 -32q-132 175 -254 175v-48l238 -174l16 15h16q72 -16 112 -111q122 -69 159 -143q84 0 159 -175q-74 -87 -318 -127l-16 -16l-32 32
q218 98 222 159q-223 223 -604 445q0 36 -79 48v-16l47 -207l-47 -32h-16q-159 144 -159 255l-111 -32l-32 48v16l63 79v95q-74 0 -111 223h16l-16 16v79q52 92 111 128l-16 16v15l32 32l48 -32l16 48l48 -16zM32 1113q79 -8 79 -143l-16 -48l16 16h32v-48h16v64l-32 143
l48 32q89 0 143 -239q191 43 191 96q83 79 270 175v47q-37 85 -191 128l-16 -16l-79 16h-191q-175 -56 -175 -112z" />
    <glyph glyph-name="s" unicode="s" horiz-adv-x="1573" 
d="M882 1416h213q321 -46 321 -134v-26l-107 -107h-27l-106 80h-214q-294 -41 -294 -134q35 -87 508 -293q374 -448 374 -588v-27q-162 -187 -455 -187l-26 27h-27l-27 -27l-374 53l-27 -26h-26l-107 26l-374 -53q-107 27 -107 107l107 160l187 -27q962 45 962 134
q-100 159 -802 588l-53 267q279 187 481 187zM1336 294v-54h27v54h-27zM935 187v-27h241l106 54v26h-160z" />
    <glyph glyph-name="t" unicode="t" horiz-adv-x="2405" 
d="M1687 1406l188 -24h140l24 -23l70 23l281 -117q-35 -93 -70 -93h-71l-421 93q-156 -47 -492 -47l-24 -23q211 -953 211 -1195h-94q-113 0 -281 867l47 47l-23 164v47l23 23v24l-70 23q-415 -94 -750 -258v-47h47v-70l-117 -23q-305 36 -305 93v47q16 47 328 141
q0 105 492 187q0 63 867 141z" />
    <glyph glyph-name="u" unicode="u" horiz-adv-x="1603" 
d="M143 1430h57l86 -57l-57 -401l143 -629h28q286 0 372 515l29 29h28q64 0 86 -315l86 -86h29l57 172l-57 286l28 114l-28 143l85 57q143 -36 143 -85l-28 -29q114 -794 343 -972v-29h-29q-200 0 -200 143q-104 -86 -200 -86l-143 29q-143 -229 -429 -229
q-572 208 -572 572v57q42 801 143 801zM543 229l29 -29h29l257 143l-29 86h-85zM1173 429l-29 -86l143 -57v57q-86 0 -86 86h-28z" />
    <glyph glyph-name="v" unicode="v" horiz-adv-x="1528" 
d="M201 1456q54 0 150 -728l201 -452h25q363 1054 628 1054l226 126l25 -25l25 25l25 -25v-25q-64 0 -276 -251l-276 -527q-130 -628 -301 -628q-242 0 -302 201l-351 1079v25l25 25v25l101 -50v50l-26 76l26 25h75z" />
    <glyph glyph-name="w" unicode="w" horiz-adv-x="1326" 
d="M1263 1446h37l-55 -329h-37v18q9 219 55 219l-18 19v18zM1226 1080l19 -18v-37l-37 -55v-18l18 -73l-18 -55l92 -37q-95 -677 -220 -677q0 -37 -92 -37h-73q-86 0 -274 165h-19q-108 -238 -347 -238q-133 0 -238 311v18l18 19v18l-37 37l19 18l-37 92l55 18v36h-37v19
l19 73l-19 18v19q14 201 55 201h19l36 -37v-18l-18 -18l36 -92h-18l37 -55l55 19q55 -72 73 -330q56 -201 91 -201h19l128 73v18l-37 37l19 55l-19 55h19l36 36l128 -36q0 53 73 91q61 0 110 -293l73 -36q206 0 257 897l18 18h18zM1226 769v-19l19 -54h18v73h-37zM128 586
l18 -19l-18 -91q37 -43 73 -293h19v37l-55 384l-19 -18h-18zM714 329v-54h36v18z" />
    <glyph glyph-name="x" unicode="x" horiz-adv-x="1350" 
d="M1252 1434h52l26 -26h26q0 -96 -235 -235q0 -73 -156 -208v-26l261 -183l78 -26v-26l-52 -52l-365 156l-105 -26q339 -269 339 -365l26 26h26l53 -52l-53 -52q-331 208 -521 261h-26q0 -78 -78 -78q0 -105 -157 -183l-261 -261h-26l-78 78q108 9 209 235q133 0 182 287
q105 0 105 78q-51 0 -339 496l-79 78l26 26h26q580 -339 652 -339h26l235 261l104 78l27 -26h26l52 52h-78zM495 600v-52l53 52h-53zM391 469v-78h26v78h-26zM0 78h26l52 -52v-26h-26l-52 52v26z" />
    <glyph glyph-name="y" unicode="y" horiz-adv-x="1146" 
d="M1122 1438l14 -43q0 -58 -72 -58v-28q-57 0 -57 -87q-69 -86 -115 -86q-2 -40 -115 -144q-45 -117 -144 -187q0 -41 -245 -388q-18 -86 -72 -86l15 -15v-14q-41 0 -87 -173q-57 -11 -57 -115l-14 -14h-15l-14 14v29h29l-29 43v43q0 57 86 144v29h-29l-143 -230h-29
q-29 0 -29 43l360 518q0 31 -144 172q-158 169 -158 245l86 43l-29 115q86 -38 144 -173q61 -133 187 -258q80 39 374 417q110 0 158 143h29q0 43 72 43q7 58 43 58zM374 777v-29l29 -29h28v14l-43 44h-14z" />
    <glyph glyph-name="z" unicode="z" horiz-adv-x="1453" 
d="M831 1408h93l46 -46l115 46q0 -46 185 -69l23 -115h-23l-439 -370h-69q185 241 185 300l-23 24h-93l-231 -47l-46 47q0 -70 -46 -70l-69 46h-23q0 -115 -347 -138l-69 162q118 115 277 115v-23l231 69l115 -46q0 69 162 69zM900 1293v-46h70l-46 46h-24zM993 1293v-23h69
v23h-69zM739 970v-23l-23 -70h-46v23zM739 831l23 -23v-23q-46 0 -46 -69h-46v23q34 92 69 92zM577 762h23v-23l-23 -69h46l-69 -185l23 -23l-92 -46l46 -47l-23 -23v-46l115 -23q0 92 116 92l115 -23l70 47q507 -39 507 -116l-69 -46q-161 0 -161 46l-23 -23h-139l-23 23
q-69 0 -69 -69l-23 -23h-24q-23 69 -138 69q-116 -139 -277 -139l-116 -115h-184l-93 92v93q116 0 116 184q329 393 369 393zM485 623l-23 -115l115 115h-92zM416 485l-116 -208l23 -69l-46 -46l46 -47l139 347v23h-46zM600 254v-23h46v23h-46z" />
    <glyph glyph-name="braceleft" unicode="{" horiz-adv-x="682" 
d="M368 1446q136 0 197 -118l13 13h14l13 -13v-40l-27 -26q-66 88 -131 118h-13q-87 0 -211 -105h27v-26l-13 -13l26 -119l-13 -13q52 0 52 -39l13 13h14q79 -31 79 -53l-40 -52q26 0 26 -79l40 -13q0 -66 -26 -66l13 -13v-66l13 -118l-13 -40l26 -26l-39 -13l13 -13v-13
l-13 -79l13 -13v-13l-27 -79q31 0 40 -92l79 -40l39 13v-39l-118 -26q45 -79 92 -79l13 13l13 -53l40 27h13v-27l-13 -13v-13q-178 46 -198 105l-26 26v40h26v-26h14v13q-79 103 -79 171h-27v118q-19 40 -144 105l-13 -13h-14l-131 92v13l26 66h13l14 -13l13 13l105 -40
q44 0 92 40l26 -26q66 47 66 92l13 13h13l-52 144l13 13l-40 14l13 13v39q-157 66 -157 250q138 184 210 184zM421 1262l13 -53h-13l-27 27zM447 1262h39v-13h-39v13zM381 1183h13v-52l-13 13h-13zM145 631v-26h13v26h-13zM250 618l39 -40l26 40v13zM657 53v-53h-13l-13 39
l13 14h13z" />
    <glyph glyph-name="bar" unicode="|" 
d="M525 1625h40q61 -20 61 -121v-41l-20 -20v-20q60 0 60 -223h-20l41 -80l-41 -101l20 -21v-40l-20 -20v-21l20 -20h21l-41 -364l41 -141l-21 -20h-20l20 -101v-21l-20 -20l20 -20v-20q-14 -142 -40 -142l20 -20v-40l-40 -61l40 -40l-61 -102l21 -20l-21 -20h-20l-40 101
q12 182 40 182l-40 182l60 40l-40 101l20 102l-20 60l20 20v21l-20 121v40l20 81l-20 81l20 81l-20 61l20 20h-60v-41q-27 -303 -101 -303l40 -61v-60h-40l20 -20v-546l-20 -142h-102l21 101q-61 21 -61 122l61 20v61l-41 161v101l41 61l-21 20v20l81 304l-20 121l41 40
l-21 101l61 41l-20 20l81 384l-21 20v21z" />
    <glyph glyph-name="braceright" unicode="}" horiz-adv-x="704" 
d="M411 1438q55 0 55 -68h13l14 13h14l13 -13v-42q-41 0 -41 -27h14l-14 -14v-13l14 -14v-14q-31 0 -41 -178l14 -41q-55 -14 -55 -82l14 -14v-13l-14 -55q0 -75 68 -110q78 82 178 82l28 -27l-151 -123v-41h14l41 27h96v-27l-178 -96l-14 -14v-14l69 -178v-82
q-130 -228 -165 -246l-14 13l-54 -27q-124 36 -124 55l14 13h-14l-41 -13v13l14 14v14h-27q0 -41 -28 -41l-123 109l27 28l41 -14l14 14v13l-27 42l27 27h28q68 -74 137 -96v-41l54 27l41 -13q0 27 55 27v14q0 50 -55 123l14 14v13l-41 165l14 41q-41 0 -96 192
q47 123 96 123h13v13l-27 42q18 68 41 68l-14 14v27h28v69l13 54l-13 55v14l13 14l-13 13v28h13l42 -28l13 14v82l-55 55h-13q0 -41 -41 -41l-14 -41q55 0 55 -28l-14 -13h-68v54l-41 -27h-14l-14 14h-14l-54 -55h-14q-27 0 -27 55q-42 0 -42 27q0 22 110 55l27 -27
q28 54 83 54l13 -41zM315 822l14 -14v-14l-28 -82v-41q53 -82 96 -82l41 123l-27 28h27v27l-96 55h-27zM370 466l27 -28v-13l-14 -69q41 0 69 -55l-14 -13h-13v27h-14v-27q41 0 41 -55h41q-9 233 -27 233l-55 41zM68 315h14v-27h-41zM96 164l-14 -13v-28l55 28v13h-41z
M274 96v-28h27v28h-27z" />
    <glyph glyph-name="sterling" unicode="&#xa3;" horiz-adv-x="779" 
d="M594 1438h13q158 0 158 -53v-39q-33 -37 -39 -159q-40 0 -40 -26h-40v13l53 106v13l-13 66h-66q-129 -67 -145 -132l13 -13v-13l-13 -40h-13v26h-27l-26 -79l26 -92l-13 -53v-13l13 13h14v-119h26v-13l158 27v-14l13 14q90 0 146 -93l-14 -39h-26v26l-40 -26l-13 52h-13
v-52h-26l-14 13l-13 -13h-66l-26 26l-79 -26l13 -14l-26 -197l26 -66q74 0 251 66q0 -40 39 -40v-26q-155 -80 -316 -106q-10 -79 -27 -79l13 -13q-38 -251 -184 -251h-27q-184 45 -184 145l-40 79q27 277 264 277h39l14 -13l66 27l-40 197l-119 -26l-13 13l-26 -26h-53v13
q0 73 105 92q80 14 80 40l-27 303l106 172q29 0 92 79h13l40 -13v13zM567 1174l27 -26h-27v26zM79 251q17 -106 119 -106l-13 13v14l26 26l13 -13l-26 -93h26q89 33 106 93h-13l-40 -27l-40 14v13l106 145v26h-171q-93 -39 -93 -105z" />
    <glyph glyph-name="copyright" unicode="&#xa9;" horiz-adv-x="1311" 
d="M381 1453q402 0 832 -409q57 -138 57 -212l-14 -70q28 0 42 -113q-102 -307 -240 -423q-118 -144 -296 -170v29h-28l-15 -43l15 -14l-99 -28l-85 14l-42 -14q0 19 -212 71q-282 183 -282 310l-14 85l85 366q14 43 84 43l28 -43l-84 -211v-57l28 -84l-28 -57q49 0 84 -141
l113 -85h14q508 85 508 212h14l15 -14h14q209 175 239 423q0 264 -338 452l-14 -14l-170 28h-42l-70 -14l-14 14l-198 -155l-28 28q28 0 28 70h28v14l14 -14h43v14h-43v29q43 0 43 42h56v-28h14v14l-14 56q-90 0 -226 -127l-28 29v42q59 96 226 155zM734 1086
q155 -33 155 -113l-71 -56l-42 14v28l14 14v14l-14 15h-71q-88 -45 -155 -170v-14l127 71v14h14l28 -28q-77 0 -211 -226q74 -141 296 -141v-28q-42 0 -42 -29l-14 15h-43v-29q43 0 43 -28l14 14h14l28 -28v-14l-42 -14l-28 28v-28h-99l-57 42l-14 -14h-14q-54 56 -113 56
l-56 113q85 315 141 395q121 127 212 127zM1157 635q0 -171 -353 -381q-138 -71 -338 -127v-14q84 -4 84 -28l14 14h14q29 0 29 -43q37 57 225 99l14 -14h15q0 63 126 127q184 267 184 353v14h-14zM550 508v-28h14v28h-14zM480 71v-15h28v15h-28z" />
    <glyph glyph-name="registered" unicode="&#xae;" horiz-adv-x="1221" 
d="M537 1431q149 0 344 -138q0 -28 137 -96l124 -248l55 -206h-14l14 -41q0 -188 -69 -275l14 -14v-14q-49 -179 -193 -275q-27 0 -96 -83q-113 -41 -261 -41h-14q-378 0 -523 358v41h-27l-14 206l14 14h-28v14q10 138 69 138v82h41v-96l-41 -55l27 -28l-41 -14l28 -82h-14
q40 -197 110 -289h14v14q-83 144 -83 357l41 179h-13l-42 42q28 0 28 41l41 14l41 -14q20 74 152 124h55l14 -14l165 110h27l14 -14l14 14h27q165 -36 165 -83v-68l-192 -303l165 -138h14q68 31 82 344l-14 138h14q-61 193 -165 193q0 41 -275 82q-72 0 -262 -151h-13
l-14 14v13q82 101 96 179q83 0 83 41l14 -13h27q37 30 138 41zM592 1362v-14h27v14h-27zM977 1101l14 -165v-152l-69 -385h14l55 -41h13q28 0 97 220l-14 41l14 69q0 316 -124 413zM468 867v-83h14q206 103 206 179v83h-41q-179 -47 -179 -179zM206 1046h28l-28 -28v28z
M372 1004l-111 -123l-68 -248q0 -359 261 -454l83 -14q123 0 247 207l14 55l-193 178l-110 14v-27h-13l27 -276l-41 -27h-28q-165 224 -165 399q69 289 124 289v27h-27zM151 991h28v-28h-28v28zM151 894v-27h14v27h-14zM867 344q-32 -115 -207 -248h14q158 0 289 179v14
l-82 55h-14z" />
    <glyph glyph-name="trademark" unicode="&#x2122;" horiz-adv-x="1497" 
d="M928 1326q41 0 85 -36q-7 -70 -37 -108q51 -27 97 -97h36q75 140 205 193l37 -12l24 24h12l36 -36l-48 -253l12 -12v-13l-24 -36l12 -36h-12l36 -145l-12 -12h-36q-31 0 -37 48h-24q-12 -72 -36 -72l-60 157l12 72l-12 61l-121 -61l-60 37l-61 -181l12 -13v-12
q-17 -72 -72 -72q-24 21 -36 169l12 36l-24 109l12 12l-12 60v48h-24v13l-12 -13h-13l-48 13q-60 -16 -60 -37l48 -205l-12 -12l72 -121l-84 -72h-12q-21 0 -85 145q-165 108 -325 145l-109 84v36l24 24l12 -12q362 44 362 97l12 -12h12l278 96l12 -12h12zM397 1073
l242 -145v48l-61 145q-79 -48 -181 -48zM1266 1013l12 -97h-12l12 -12l-12 -60l12 -36h24v24h-12l12 84v169q-36 -12 -36 -72z" />
  </font>
</defs>
</svg>
